<?xml version="1.0" encoding="UTF-8"?>
<svg width="20px" height="20px" viewBox="0 0 20 20" version="1.1" xmlns="http://www.w3.org/2000/svg" xmlns:xlink="http://www.w3.org/1999/xlink">
    <title>编组备份 2</title>
    <g id="页面-1" stroke="none" stroke-width="1" fill="none" fill-rule="evenodd">
        <g id="通知公告" transform="translate(-26.000000, -304.000000)" fill="#4DD5E7" fill-rule="nonzero">
            <g id="编组备份-2" transform="translate(26.000000, 304.000000)">
                <path d="M10,0 C12.6521649,0 15.195704,1.0535684 17.0710678,2.92893219 C18.9464316,4.80429597 20,7.3478351 20,10 C20,15.5228475 15.5228475,20 10,20 C4.4771525,20 0,15.5228475 0,10 C0,4.4771525 4.4771525,0 10,0 Z M11.1574173,14.9277186 L8.93062967,14.9277186 C8.93062967,15.5193221 9.4284952,16 10.0432231,16 C10.6579509,16 11.1574173,15.5193221 11.1574173,14.9277186 Z M9.97438634,4 C9.54215582,4 9.19156884,4.3373989 9.19156884,4.75337014 C9.19156884,4.77956092 9.1963714,4.80421107 9.19957311,4.82886121 C7.26574173,5.19245089 5.79295624,6.83938888 5.79295624,8.80369752 L5.79295624,12.626011 L4.25773746,12.626011 C4.11526147,12.626011 4,12.7369367 4,12.8740532 L4,13.5103351 C4,13.6474515 4.11526147,13.7583772 4.25773746,13.7583772 L15.7422625,13.7583772 C15.8847385,13.7583772 16,13.6474515 16,13.5103351 L16,12.8740532 C16,12.7353961 15.8847385,12.6244704 15.7422625,12.6244704 L14.2070438,12.6244704 L14.2070438,8.80369752 C14.2070438,6.82398254 12.7086446,5.16626011 10.7508004,4.82269868 C10.7524013,4.79958916 10.7572038,4.77802029 10.7572038,4.75337014 C10.7572038,4.3373989 10.4066169,4 9.97438634,4 Z" id="形状结合"></path>
            </g>
        </g>
    </g>
</svg>