<?xml version="1.0" encoding="UTF-8"?>
<svg width="20px" height="20px" viewBox="0 0 20 20" version="1.1" xmlns="http://www.w3.org/2000/svg" xmlns:xlink="http://www.w3.org/1999/xlink">
    <title>增援</title>
    <g id="2023年6月" stroke="none" stroke-width="1" fill="none" fill-rule="evenodd">
        <g id="警情管理-详情-2" transform="translate(-832.000000, -172.000000)">
            <g id="增援" transform="translate(832.000000, 172.000000)">
                <rect id="矩形" fill="#2F6BFF" x="0" y="0" width="20" height="20" rx="2"></rect>
                <g id="群-加" transform="translate(3.000000, 4.000000)" fill="#FFFFFF" fill-rule="nonzero">
                    <path d="M11.3207965,6.55088495 C12.8075221,6.59734513 14,7.82079646 14,9.33849557 C14,10.8716814 12.7455752,12.1261062 11.2123894,12.1261062 C10.329646,12.1261062 9.55530973,11.7234513 9.04424778,11.0884956 C8.65707965,10.6084071 8.42477876,10.0044248 8.42477876,9.33849557 C8.42477876,9.07522124 8.45575221,8.84292036 8.51769912,8.61061947 C8.56415928,8.42477876 8.64159292,8.25442477 8.71902654,8.08407079 C9.18362833,7.17035398 10.1283186,6.55088495 11.2123894,6.55088495 L11.2123894,6.55088495 Z M11.2123894,7.00000001 C10.9955752,7.00000001 10.8097345,7.18584072 10.8097345,7.40265487 L10.8097345,7.40265487 L10.8097345,8.92035398 L9.2920354,8.92035398 C9.07522124,8.92035399 8.88938053,9.1061947 8.88938053,9.32300886 C8.88938053,9.53982301 9.07522124,9.72566372 9.2920354,9.72566372 L9.2920354,9.72566372 L10.8097345,9.72566372 L10.8097345,11.2433628 C10.8097345,11.4756637 10.9955752,11.6460177 11.2123894,11.6460177 C11.4292035,11.6460177 11.6150442,11.460177 11.6150442,11.2433628 L11.6150442,11.2433628 L11.6150442,9.72566372 L13.1327434,9.72566372 C13.3650443,9.72566372 13.5353982,9.53982302 13.5353982,9.32300886 C13.5353982,9.10619469 13.3495575,8.92035398 13.1327434,8.92035398 L13.1327434,8.92035398 L11.6150442,8.92035398 L11.6150442,7.40265487 C11.6150442,7.18584072 11.4292036,7.00000001 11.2123894,7.00000001 Z M6.25663716,0 C6.89159292,0 7.38716814,0.108407084 7.75884955,0.294247792 C8.11504424,0.495575231 8.3938053,0.743362832 8.57964601,1.03761062 C8.76548673,1.33185842 8.88938053,1.67256639 8.93584071,2.02876107 C8.98230089,2.40044249 9.01327433,2.75663717 9.01327433,3.09734514 C9.01327433,3.56194691 8.96681416,3.96460177 8.88938053,4.30530974 C8.79646016,4.64601771 8.70353981,4.94026549 8.57964601,5.18805311 C8.45575221,5.43584071 8.33185841,5.65265486 8.19247788,5.8539823 C8.05309735,6.03982301 7.92920353,6.22566371 7.80530973,6.41150442 C7.68141593,6.58185841 7.57300885,6.76769912 7.49557522,6.95353983 C7.41814159,7.13938054 7.37168141,7.35619469 7.37168141,7.58849558 C7.37168141,7.77433629 7.46460176,7.92920355 7.61946902,8.06858408 C7.68141593,8.13053097 7.74336284,8.17699115 7.82079646,8.22345132 C7.71238938,8.56415929 7.65044247,8.93584071 7.61946902,9.32300886 C7.61946902,10.0199115 7.82079646,10.670354 8.17699115,11.2278761 C8.09955751,11.2433628 8.00663716,11.2433628 7.92920353,11.2588496 C7.40265487,11.3207965 6.86061946,11.3517699 6.31858407,11.3517699 C5.69911505,11.3517699 5.14159293,11.3207965 4.66150443,11.2588496 C4.18141593,11.1969027 3.77876107,11.1039823 3.45353983,10.9955752 C3.12831859,10.8871681 2.88053097,10.7632743 2.710177,10.6238938 C2.539823,10.4845133 2.46238938,10.3451327 2.46238938,10.2057522 C2.46238938,9.98893805 2.55530973,9.78761063 2.710177,9.63274336 C2.86504426,9.4778761 3.06637168,9.32300884 3.3141593,9.19911504 C3.56194691,9.07522124 3.82522124,8.95132744 4.1039823,8.84292036 C4.38274337,8.73451327 4.6460177,8.62610619 4.89380531,8.50221239 C5.14159293,8.37831859 5.34292035,8.23893806 5.49778761,8.09955752 C5.66814159,7.96017699 5.74557521,7.78982302 5.74557521,7.58849558 C5.74557521,7.38716814 5.69911504,7.20132745 5.62168141,7.03097345 C5.54424779,6.86061946 5.45132744,6.67477875 5.31194691,6.50442478 C5.17256637,6.3340708 5.04867257,6.13274338 4.89380531,5.93141594 C4.73893805,5.7300885 4.59955752,5.49778761 4.47566372,5.23451328 C4.35176991,4.97123894 4.24336282,4.67699116 4.1659292,4.33628319 C4.08849557,3.99557522 4.0420354,3.60840707 4.0420354,3.15929203 C4.0420354,2.18362832 4.2278761,1.42477877 4.58407079,0.851769916 C4.94026548,0.278761062 5.4977876,0 6.25663716,0 Z M2.24557523,1.65707966 C2.57079646,1.65707966 2.8340708,1.70353982 3.03539823,1.8119469 C2.98893804,2.12168141 2.9579646,2.44690265 2.9579646,2.78761062 C2.9579646,3.32964601 3.00442477,3.79424778 3.09734513,4.18141593 C3.19026548,4.56858407 3.29867257,4.89380531 3.4380531,5.17256637 C3.29867257,5.35840708 3.17477875,5.51327433 3.06637168,5.66814159 C2.95796461,5.82300885 2.8960177,6.00884956 2.8960177,6.210177 C2.8960177,6.31858407 2.95796461,6.42699115 3.08185841,6.50442478 C3.20575221,6.5818584 3.34513273,6.65929204 3.51548672,6.73672566 C3.68584071,6.81415928 3.85619469,6.89159291 4.05752213,6.96902655 C4.25884957,7.04646018 4.41371681,7.12389381 4.56858407,7.21681416 C4.58407079,7.24778762 4.58407079,7.32522125 4.58407079,7.4181416 C4.58407079,7.58849558 4.50663717,7.71238938 4.36725664,7.82079646 C4.2278761,7.91371682 4.0420354,8.0221239 3.82522124,8.11504425 C3.60840707,8.22345134 3.36061946,8.31637169 3.09734513,8.44026549 C2.8340708,8.56415929 2.60176991,8.73451327 2.40044247,8.93584071 L2.40044247,8.93584071 L2.15265487,8.93584071 C1.79646019,8.93584071 1.48672566,8.90486725 1.22345133,8.82743363 C0.960176986,8.75 0.743362832,8.65707966 0.557522124,8.53318585 C0.371681416,8.40929205 0.232300885,8.26991152 0.139380531,8.11504425 C0.046460177,7.96017699 0,7.80530975 0,7.65044248 C0,7.46460176 0.108407084,7.30973452 0.294247792,7.20132743 C0.495575216,7.09292036 0.696902655,6.98451328 0.92920354,6.89159292 C1.16150442,6.79867257 1.37831858,6.70575221 1.56415929,6.59734513 C1.76548673,6.48893806 1.85840708,6.34955752 1.85840708,6.19469027 C1.85840708,6.03982302 1.8119469,5.88495576 1.70353982,5.74557523 C1.61061948,5.6061947 1.48672568,5.43584072 1.36283186,5.26548673 C1.23893805,5.09513274 1.13053098,4.87831858 1.02212389,4.6460177 C0.913716809,4.41371681 0.867256632,4.1039823 0.867256632,3.73230089 C0.867256647,3.45353983 0.882743363,3.1902655 0.94469027,2.94247788 C0.991150432,2.69469026 1.08407079,2.46238938 1.19247787,2.27654867 C1.31637169,2.09070796 1.45575222,1.93584072 1.62610619,1.82743363 C1.8119469,1.71902656 2.01327434,1.65707966 2.24557523,1.65707966 Z M10.4225664,1.65707966 C10.8252212,1.65707966 11.1504425,1.71902655 11.3982301,1.85840708 C11.6460177,1.98230089 11.8318584,2.15265487 11.9557522,2.35398231 C12.079646,2.55530975 12.1570796,2.7721239 12.2035398,3.00442479 C12.25,3.23672567 12.2654867,3.45353983 12.2654867,3.63938053 C12.2654867,4.02654868 12.2035398,4.35176993 12.079646,4.5840708 C11.9557522,4.81637167 11.8163717,5.03318583 11.6615044,5.20353982 C11.5066372,5.37389381 11.3672566,5.52876106 11.2433628,5.68362832 C11.2278761,5.71460177 11.1969027,5.74557523 11.1814159,5.77654868 C10.7632743,5.77654868 10.3606195,5.8539823 9.98893805,5.99336283 C9.9579646,5.90044248 9.8960177,5.80752212 9.81858407,5.71460177 C9.67920354,5.55973452 9.53982301,5.38938054 9.38495575,5.18805311 C9.52433628,4.87831858 9.63274336,4.5221239 9.72566372,4.1039823 C9.81858407,3.68584071 9.86504425,3.1902655 9.86504425,2.63274337 C9.86504425,2.50884957 9.86504425,2.38495576 9.84955752,2.26106196 L9.84955752,2.26106196 L9.80309734,1.88938054 C10.0353982,1.73451328 10.2367257,1.65707966 10.4225664,1.65707966 Z" id="形状结合"></path>
                </g>
            </g>
        </g>
    </g>
</svg>