<?xml version="1.0" encoding="UTF-8"?>
<svg width="20px" height="20px" viewBox="0 0 20 20" version="1.1" xmlns="http://www.w3.org/2000/svg" xmlns:xlink="http://www.w3.org/1999/xlink">
    <title>警情</title>
    <g id="2023年6月" stroke="none" stroke-width="1" fill="none" fill-rule="evenodd">
        <g id="警情管理-详情-2" transform="translate(-232.000000, -172.000000)">
            <g id="警情" transform="translate(232.000000, 172.000000)">
                <rect id="矩形" fill="#2F6BFF" x="0" y="0" width="20" height="20" rx="2"></rect>
                <g id="编组-7" transform="translate(4.000000, 4.000000)" fill="#FFFFFF" fill-rule="nonzero">
                    <g id="xiaoxi">
                        <path d="M3.16897455,0.901010479 L2.35217066,0.0842065868 C0.988023952,1.12415793 0.0856100299,2.73952096 0,4.56680389 L1.14240269,4.56680389 C1.22801272,3.05389222 2.00411677,1.72904192 3.16897455,0.901010479 Z M10.8149326,4.56680389 L11.9573353,4.56680389 C11.8717253,2.73952096 10.9693114,1.12275449 9.5995509,0.0842065868 L8.78274701,0.901010479 C9.95321856,1.72904192 10.7293226,3.05389222 10.8149326,4.56680389 Z M9.6907747,4.85310629 C9.6907747,3.10020584 8.47398952,1.63220434 6.83617141,1.24485404 L6.83617141,0.856100299 C6.83617141,0.381736527 6.45303144,0 5.98007111,0 C5.50570734,0 5.12397081,0.38313997 5.12397081,0.856100299 L5.12397081,1.24485404 C3.48474925,1.63360778 2.26936751,3.10020584 2.26936751,4.85310629 L2.26936751,7.99401198 L1.12696482,9.13641467 L1.12696482,9.70761602 L10.8345808,9.70761602 L10.8345808,9.13641467 L9.69217814,7.99401198 L9.69217814,4.85310629 L9.6907747,4.85310629 Z M5.97866766,11.4198166 C6.05866392,11.4198166 6.13304641,11.4142028 6.20742889,11.3973615 C6.57793787,11.322979 6.88669536,11.066149 7.02984656,10.7237088 C7.08738772,10.5861714 7.12107036,10.4388099 7.12107036,10.2788174 L4.83626497,10.2788174 C4.83626497,10.9061564 5.34992515,11.4198166 5.97866766,11.4198166 L5.97866766,11.4198166 Z" id="形状"></path>
                    </g>
                </g>
            </g>
        </g>
    </g>
</svg>