<?xml version="1.0" encoding="UTF-8"?>
<svg width="14px" height="14px" viewBox="0 0 14 14" version="1.1" xmlns="http://www.w3.org/2000/svg" xmlns:xlink="http://www.w3.org/1999/xlink">
    <title>主战</title>
    <g id="2023年1月" stroke="none" stroke-width="1" fill="none" fill-rule="evenodd">
        <g id="警情管理-展开" transform="translate(-265.000000, -334.000000)">
            <g id="主战" transform="translate(265.000000, 334.000000)">
                <rect id="矩形" fill="#2F6BFF" x="0" y="0" width="14" height="14" rx="2"></rect>
                <g id="微型消防站" transform="translate(2.000000, 2.000000)" fill="#FFFFFF" fill-rule="nonzero">
                    <path d="M4.68899522,0.0996810207 C4.89101542,-0.0332270069 5.17809676,-0.0332270069 5.38011696,0.0996810207 L5.38011696,0.0996810207 L8.31472621,2.07203615 C8.37852206,2.11456672 8.42105263,2.18367889 8.42105263,2.25279107 L8.42105263,2.25279107 L8.42105263,8.03694843 L9.71823498,8.03694843 C9.87240829,8.03694843 10,8.14327485 10,8.2814992 L10,8.2814992 L10,8.53668262 C10,8.66959064 9.87772461,8.77591707 9.71823498,8.77591707 L9.71823498,8.77591707 L0.281765019,8.77591707 C0.122275385,8.77591707 0,8.66959064 0,8.53668262 L0,8.53668262 L0,8.29213184 C0,8.15922382 0.122275385,8.0528974 0.281765019,8.0528974 L0.281765019,8.0528974 L1.64274322,8.0528974 L1.64274322,2.23684211 C1.64274322,2.15709729 1.67995747,2.08798511 1.74906964,2.04545455 L1.74906964,2.04545455 Z M4.99734184,3.65098352 C4.92291334,3.65098352 4.86443381,3.70946305 4.86443381,3.78389155 L4.86443381,3.78389155 L4.86443381,3.90085061 C4.47634237,3.95933014 4.16799575,4.27299309 4.12546518,4.67171717 L4.12546518,4.67171717 L4.08293461,4.67171717 C3.99255715,4.67171717 3.91812865,4.74614567 3.91812865,4.83652313 L3.91812865,4.83652313 L3.91812865,5.23524721 C3.91812865,5.32562467 3.99255715,5.40005316 4.08293461,5.40005316 L4.08293461,5.40005316 L4.15204678,5.40005316 L4.15204678,7.86150984 L3.93407762,7.86150984 C3.85964912,7.85619351 3.79053695,7.9040404 3.78522063,7.9784689 C3.77990431,8.0528974 3.8277512,8.11669325 3.90217969,8.12732589 L3.90217969,8.12732589 L6.06060606,8.12732589 C6.13503456,8.13264221 6.19883041,8.08479532 6.20946305,8.01036683 C6.22009569,7.93593833 6.16693248,7.86682616 6.09250399,7.86150984 L6.09250399,7.86150984 L5.85326954,7.86150984 L5.85326954,5.40005316 L5.92238171,5.40005316 C6.01275917,5.40005316 6.08187135,5.32562467 6.08187135,5.23524721 L6.08187135,5.23524721 L6.08187135,4.83652313 C6.08187135,4.74614567 6.01275917,4.67171717 5.92238171,4.67171717 L5.92238171,4.67171717 L5.87985114,4.67171717 C5.83732057,4.27299309 5.52897395,3.95933014 5.13024987,3.90085061 L5.13024987,3.90085061 L5.13024987,3.78389155 C5.13024987,3.70946305 5.07177033,3.65098352 4.99734184,3.65098352 Z M3.97660819,6.09117491 L3.51940457,6.09117491 C3.4502924,6.09117491 3.40244551,6.1390218 3.40244551,6.20813397 L3.40244551,6.20813397 L3.40244551,6.37293993 L3.07814992,6.37293993 C3.03561935,6.37293993 3.00372142,6.40483785 3.00372142,6.44736842 L3.00372142,6.44736842 L3.00372142,6.75571505 C3.00372142,6.79824561 3.03561935,6.83014354 3.07814992,6.83014354 L3.07814992,6.83014354 L3.40244551,6.83014354 L3.40244551,6.99494949 C3.40244551,7.06406167 3.4502924,7.11190856 3.51940457,7.11190856 L3.51940457,7.11190856 L3.97660819,7.11190856 L3.97660819,6.09117491 Z M6.59223817,6.09649123 L6.1456672,6.09649123 L6.1456672,7.11190856 L6.59223817,7.11190856 C6.66135035,7.11190856 6.70919724,7.06406167 6.70919724,6.99494949 L6.70919724,6.99494949 L6.70919724,6.83014354 L7.03349282,6.83014354 C7.07602339,6.83014354 7.10792132,6.79824561 7.10792132,6.75571505 L7.10792132,6.75571505 L7.10792132,6.45800106 C7.10792132,6.41547049 7.07602339,6.38357257 7.03349282,6.37293993 L7.03349282,6.37293993 L6.70919724,6.37293993 L6.70919724,6.21345029 C6.70919724,6.14433812 6.66135035,6.09649123 6.59223817,6.09649123 L6.59223817,6.09649123 Z M5.00797448,5.57549176 C5.0877193,5.57549176 5.15683147,5.64460393 5.15683147,5.72434875 L5.15683147,5.72434875 L5.15683147,6.93115364 C5.15683147,7.01089846 5.0877193,7.08001063 5.00797448,7.08001063 C4.92822967,7.08001063 4.85911749,7.01621478 4.85911749,6.93115364 L4.85911749,6.93115364 L4.85911749,5.72434875 C4.85911749,5.64460393 4.92291334,5.57549176 5.00797448,5.57549176 Z M6.89526847,1.96039341 L5.91706539,1.96039341 C5.6937799,1.96039341 5.60340245,2.04545455 5.60340245,2.15709729 L5.60340245,2.15709729 L5.60340245,3.12998405 C5.60340245,3.23631047 5.68846358,3.32668793 5.80010633,3.32668793 L5.80010633,3.32668793 L6.77299309,3.32668793 C6.88463583,3.32668793 6.96969697,3.24162679 6.96969697,3.12998405 L6.96969697,3.12998405 L6.96969697,2.15709729 C6.96969697,2.05077087 6.88995215,1.96039341 6.89526847,1.96039341 L6.89526847,1.96039341 Z M4.2317916,1.96039341 L3.25890484,1.96039341 C3.15257842,1.96039341 3.06220096,2.04545455 3.06220096,2.15709729 L3.06220096,2.15709729 L3.06220096,3.12998405 C3.06220096,3.23631047 3.14726209,3.32668793 3.25890484,3.32668793 L3.25890484,3.32668793 L4.2317916,3.32668793 C4.34343434,3.32668793 4.42849548,3.24162679 4.42849548,3.12998405 L4.42849548,3.12998405 L4.42849548,2.15709729 C4.42849548,2.05077087 4.34343434,1.96039341 4.2317916,1.96039341 L4.2317916,1.96039341 Z" id="形状结合"></path>
                </g>
            </g>
        </g>
    </g>
</svg>