<?xml version="1.0" encoding="UTF-8"?>
<svg width="14px" height="14px" viewBox="0 0 14 14" version="1.1" xmlns="http://www.w3.org/2000/svg" xmlns:xlink="http://www.w3.org/1999/xlink">
    <title>火灾报告</title>
    <g id="2023年1月" stroke="none" stroke-width="1" fill="none" fill-rule="evenodd">
        <g id="警情管理-展开" transform="translate(-265.000000, -417.000000)" fill="#EA4838" fill-rule="nonzero">
            <g id="火灾报告" transform="translate(265.000000, 417.000000)">
                <path d="M2.99140222,0.535249036 L2.99140222,1.07565973 C2.99140222,1.59397045 3.41133211,2.0141443 3.92934188,2.0141443 C4.41035095,2.0141443 4.80679115,1.65185154 4.86097133,1.18510686 L4.86728154,1.07565973 L4.86728154,0.535249036 L9.13490698,0.535249036 L9.13490698,1.07565973 C9.13490698,1.59397045 9.55483687,2.01414431 10.0728466,2.01414431 C10.5538557,2.01414431 10.9502959,1.65185154 11.0044761,1.18510686 L11.0107863,1.07565973 L11.0107863,0.535249036 L13.2976395,0.535249036 C13.6531577,0.535249036 13.9470705,0.843718272 13.993587,1.24391559 L14,1.35517172 L14,13.1800773 C14,13.5951612 13.7357138,13.9382208 13.392932,13.9925148 L13.2976395,14 L0.702360487,14 C0.346842268,14 0.0529295413,13.6921879 0.00641296335,13.2914977 L0,13.1800773 L0,1.35517172 C0,0.940087821 0.264286208,0.597028259 0.607067969,0.542734193 L0.702360487,0.535249036 L2.99140222,0.535249036 Z M9.6635923,10.4728622 L4.33640768,10.4728622 C4.07772349,10.4736352 3.86821044,10.68327 3.86743786,10.9421044 C3.8681246,11.1721795 4.03374208,11.3633808 4.25221966,11.4035724 L4.33640768,11.4113467 L9.6635923,11.4113467 C9.9222765,11.4105737 10.1317896,11.2009389 10.1325621,10.9421044 C10.1317896,10.68327 9.9222765,10.4736352 9.6635923,10.4728622 Z M7.0060966,3.12421513 C5.2793497,3.12421513 3.87963108,4.52474694 3.87963108,6.25249704 C3.87963108,7.98024714 5.27934969,9.38077895 7.0060966,9.38077895 C8.73284352,9.38077895 10.1325621,7.98024714 10.1325621,6.25249704 C10.1325621,4.52474694 8.73284351,3.12421513 7.0060966,3.12421513 Z M6.5990308,3.61754519 C6.5990308,3.61754519 7.64530249,3.93037338 8.06737534,5.54597458 C8.32452712,5.32558712 8.30608098,4.86635533 8.17758324,4.59091011 C8.5446303,4.84742923 10.673597,7.25354724 7.84711583,8.86977409 C8.37861497,7.84119501 7.97561357,6.42689876 7.05768328,5.78403682 C7.11270908,6.05963847 7.03939346,6.79431546 6.63561044,7.25354724 C6.72690323,6.77601502 6.48882288,6.48211293 6.48882288,6.48211293 C6.48882288,6.48211293 6.41535093,6.90443099 6.12177583,7.34536232 C5.84602157,7.73092306 5.66343598,8.15339754 6.01156792,8.88807454 C4.89182429,8.24536903 4.59824917,7.65756485 4.76332655,6.83107278 C4.89182429,6.22496816 5.35032046,5.74774875 5.38736908,5.14180056 C5.57104894,5.47261637 5.58933876,5.69300382 5.6077849,6.0235068 C6.15835548,5.34404398 6.72752852,4.44372444 6.5990308,3.61754519 Z M3.92934188,0 C4.24198844,0 4.3983117,0.156414097 4.3983117,0.469242292 L4.3983117,0.925502205 C4.3983117,1.20357171 4.27479702,1.35805476 4.02776765,1.38895137 L3.92934188,1.39474448 C3.61669532,1.39474448 3.46037204,1.23833039 3.46037204,0.925502205 L3.46037204,0.469242292 C3.46037204,0.191172786 3.58388673,0.0366897265 3.83091611,0.00579311471 L3.92934188,0 Z M10.0728466,0 C10.3854932,0 10.5418165,0.156414097 10.5418165,0.469242292 L10.5418165,0.925502205 C10.5418165,1.20357171 10.4183018,1.35805476 10.1712724,1.38895137 L10.0728466,1.39474448 C9.76020008,1.39474448 9.60387682,1.23833039 9.60387682,0.925502205 L9.60387682,0.469242292 C9.60387682,0.191172786 9.7273915,0.0366897265 9.97442087,0.00579311471 L10.0728466,0 Z" id="形状结合"></path>
            </g>
        </g>
    </g>
</svg>