<?xml version="1.0" encoding="UTF-8"?>
<svg width="14px" height="14px" viewBox="0 0 14 14" version="1.1" xmlns="http://www.w3.org/2000/svg" xmlns:xlink="http://www.w3.org/1999/xlink">
    <title>指挥部</title>
    <g id="2023年1月" stroke="none" stroke-width="1" fill="none" fill-rule="evenodd">
        <g id="警情管理-展开" transform="translate(-265.000000, -375.000000)">
            <g id="指挥部" transform="translate(265.000000, 375.000000)">
                <rect id="矩形" fill="#2F6BFF" x="0" y="0" width="14" height="14" rx="2"></rect>
                <g id="专项指挥部" transform="translate(2.000000, 2.000000)" fill="#FFFFFF" fill-rule="nonzero">
                    <polygon id="路径" points="3.66935483 3.0107527 3.64247313 7.12365592 4.09946237 7.12365592 4.09946237 5.40322581 7.19086022 5.40322581 4.04569893 2.95698925"></polygon>
                    <path d="M5.18817205,0 L0,3.52150539 L0.0806451538,4.62365592 L1.0483871,4.62365592 L1.0483871,9.16666668 L9.00537636,9.16666668 L9.00537636,4.51612903 L10,4.51612903 L10,3.57526882 L5.18817205,0 Z M5,7.71505378 C3.50086022,7.71505378 2.28494624,6.49903227 2.28494624,5 C2.28494624,3.50043011 3.50086022,2.28494624 5,2.28494624 C6.49935484,2.28494624 7.71505378,3.50053763 7.71505378,5 C7.71505378,6.49935484 6.49935485,7.71505378 5,7.71505378 Z" id="形状"></path>
                </g>
            </g>
        </g>
    </g>
</svg>